<?xml version="1.0" encoding="utf-8"?>
<!-- Generator: Adobe Illustrator 16.0.0, SVG Export Plug-In . SVG Version: 6.00 Build 0)  -->
<!DOCTYPE svg PUBLIC "-//W3C//DTD SVG 1.1//EN" "http://www.w3.org/Graphics/SVG/1.1/DTD/svg11.dtd">
<svg version="1.1" id="Layer_1" xmlns="http://www.w3.org/2000/svg" xmlns:xlink="http://www.w3.org/1999/xlink" x="0px" y="0px"
	 width="495px" height="95px" viewBox="0 0 495 95" enable-background="new 0 0 495 95" xml:space="preserve">
<g>
	<path fill="#333333" d="M115.913,36.292c0-8.478,2.343-15.465,6.349-22.026l3.919,1.661c-3.579,6.221-5.198,13.42-5.198,20.365
		c0,7.028,1.619,14.187,5.198,20.406l-3.919,1.659C118.256,51.756,115.913,44.855,115.913,36.292z"/>
	<path fill="#333333" d="M165.079,40.338h-15.04v13.165h-5.624V40.338h-14.783v-4.473h35.447V40.338L165.079,40.338z M131.294,29.22
		c8.009-0.981,12.184-4.815,12.738-8.563h-11.29v-4.473h29.097v4.473H150.72c0.554,3.749,4.686,7.583,12.653,8.563l-2.002,4.387
		c-6.859-0.937-11.674-3.876-14.016-7.881c-2.343,4.004-7.158,6.944-14.017,7.881L131.294,29.22z"/>
	<path fill="#333333" d="M168.534,56.698c3.579-6.22,5.198-13.377,5.198-20.406c0-6.945-1.619-14.145-5.198-20.365l3.877-1.661
		c4.047,6.561,6.39,13.548,6.39,22.026c0,8.562-2.343,15.463-6.39,22.065L168.534,56.698z"/>
	<path fill="#333333" d="M196.059,24.576c0,6.56,1.917,13.165,7.583,16.488l-3.28,4.089c-3.493-2.044-5.708-5.454-6.987-9.586
		c-1.362,4.474-3.664,8.308-7.199,10.525l-3.323-4.134c5.709-3.621,7.754-10.651,7.754-17.381V22.66h-6.305v-4.558h17.467v4.558
		h-5.709L196.059,24.576L196.059,24.576z M204.025,14.82h5.239v36.808h-5.239V32.116h-4.984v-4.558h4.984V14.82z M217.275,14.138
		v39.238h-5.326V14.138H217.275z"/>
	<path fill="#333333" d="M233.256,33.267c-6.007,0-10.523-3.75-10.523-8.989c0-5.198,4.516-8.947,10.523-8.947
		c5.964,0,10.438,3.749,10.438,8.947C243.694,29.518,239.22,33.267,233.256,33.267z M233.256,28.708c2.897,0,4.984-1.619,4.984-4.43
		c0-2.769-2.087-4.431-4.984-4.431c-2.898,0-5.069,1.662-5.069,4.431C228.187,27.089,230.357,28.708,233.256,28.708z
		 M255.751,48.604v4.39h-27.097V42.128h20.536v-2.385h-20.577v-4.304h26.159v10.694h-20.536v2.471H255.751L255.751,48.604z
		 M254.771,33.82h-5.668V14.18h5.668V33.82z"/>
	<path fill="#333333" d="M280.764,16.438c0,10.439-6.603,17.511-18.232,20.535l-2.217-4.43c8.735-2.173,13.508-6.477,14.313-11.631
		h-12.438v-4.474H280.764z M266.193,37.612h25.436v15.335h-25.436V37.612z M271.689,48.562h14.398v-6.52h-14.398V48.562z
		 M296.824,27.303h-5.195v8.733h-5.624V14.181h5.624v8.521h5.195V27.303z"/>
	<path fill="#333333" d="M320.22,36.463c-4.26-1.408-7.2-4.176-8.903-7.626c-1.704,3.961-4.815,7.158-9.373,8.691l-2.854-4.43
		c6.221-2.173,9.074-7.158,9.245-12.058h-7.713v-4.517h21.091v4.517h-7.626c0.168,4.473,2.896,9.075,8.86,11.034L320.22,36.463z
		 M332.275,45.92c0,4.771-5.111,7.542-13.422,7.542c-8.349,0-13.461-2.771-13.461-7.542c0-4.772,5.112-7.542,13.461-7.542
		C327.164,38.379,332.275,41.148,332.275,45.92z M326.652,45.92c0-2.216-2.685-3.281-7.799-3.281c-5.153,0-7.837,1.065-7.837,3.281
		c0,2.213,2.684,3.28,7.837,3.28C323.969,49.2,326.652,48.134,326.652,45.92z M326.482,23.638V14.18h5.623v23.347h-5.623v-9.33
		h-5.881v-4.559H326.482z"/>
	<path fill="#333333" d="M360.357,35.355c-7.284,1.234-15.72,1.362-21.896,1.362l-0.598-4.559c1.277,0,2.642,0,4.09,0V21.252h-3.11
		v-4.473h20.706v4.473h-3.108v10.311c1.233-0.085,2.427-0.213,3.576-0.341L360.357,35.355z M370.839,46.133
		c0,4.6-5.07,7.329-13.463,7.329c-8.351,0-13.419-2.729-13.419-7.329c0-4.644,5.068-7.327,13.419-7.327
		C365.769,38.806,370.839,41.49,370.839,46.133z M347.365,32.032c1.189,0,2.428-0.086,3.662-0.127V21.252h-3.662V32.032z
		 M365.215,46.133c0-2.088-2.642-3.067-7.839-3.067c-5.155,0-7.797,0.979-7.797,3.067c0,2.045,2.642,3.067,7.797,3.067
		C362.573,49.2,365.215,48.18,365.215,46.133z M365.043,32.33h-4.599v-4.473h4.599v-2.854h-4.599v-4.518h4.599V14.18h5.624v23.985
		h-5.624V32.33z"/>
	<path fill="#333333" d="M396.703,18.186c0,11.758-4.476,21.855-17.508,28.458l-3.154-4.303
		c9.116-4.686,13.975-10.907,14.996-19.597h-12.823v-4.559L396.703,18.186L396.703,18.186z M412.638,33.778h-5.497v19.553h-5.624
		V14.138h5.624v14.997h5.497V33.778z"/>
	<path fill="#333333" d="M447.791,14.181v21.514h-5.625v-8.051h-6.988v6.902h-18.532V16.184h5.583v4.941h7.455v-4.941h5.494v6.943
		h6.988v-8.946H447.791z M442.209,37.357h5.582v15.549h-25.988V37.357h5.537v3.493h14.869V37.357L442.209,37.357z M429.684,25.428
		h-7.455v4.644h7.455V25.428z M442.209,45.153H427.34v3.324h14.869V45.153L442.209,45.153z"/>
	<path fill="#333333" d="M464.797,36.59c-6.01,0-10.695-4.217-10.695-9.927c0-5.794,4.687-9.97,10.695-9.97
		c6.005,0,10.648,4.176,10.648,9.97C475.445,32.373,470.802,36.59,464.797,36.59z M464.797,31.733c2.938,0,5.153-1.917,5.153-5.07
		c0-3.238-2.216-5.111-5.153-5.111c-2.897,0-5.2,1.874-5.2,5.111C459.597,29.816,461.898,31.733,464.797,31.733z M487.12,48.264
		v4.473h-27.099V39.614h5.623v8.649H487.12z M486.137,42.383h-5.664v-28.16h5.664V42.383z"/>
</g>
<g>
	<path fill="#787878" d="M122.448,84.8V73.521h-4.223v-1.513h10.13v1.513h-4.222V84.8H122.448z"/>
	<path fill="#787878" d="M130.161,84.8V72.011h1.697v5.253h6.642v-5.253h1.697V84.8h-1.697v-6.03h-6.642v6.03H130.161z"/>
	<path fill="#787878" d="M143.057,84.8V72.011h9.234v1.512h-7.549v3.915h7.07v1.495h-7.07v4.358h7.845v1.51L143.057,84.8
		L143.057,84.8z"/>
	<path fill="#787878" d="M159.729,84.8V72.011h8.619v1.512h-6.935v3.955h6v1.51h-6v5.813L159.729,84.8L159.729,84.8z"/>
	<path fill="#787878" d="M170.85,84.8V72.011h1.683V84.8H170.85z"/>
	<path fill="#787878" d="M175.54,84.8V72.011h5.666c1.07,0,1.832,0.077,2.285,0.227c0.454,0.151,0.833,0.356,1.135,0.613
		c0.303,0.26,0.569,0.617,0.796,1.07c0.227,0.454,0.341,0.979,0.341,1.577c0,1.996-1.2,3.158-3.596,3.488
		c0.508,0.223,0.956,0.545,1.349,0.964c0.393,0.417,0.75,0.876,1.069,1.374l2.232,3.476h-2.143l-1.683-2.657
		c-0.42-0.66-0.777-1.183-1.075-1.569c-0.3-0.39-0.593-0.697-0.883-0.922c-0.289-0.23-0.553-0.374-0.794-0.437
		c-0.24-0.063-0.588-0.095-1.041-0.095h-1.963v5.68H175.54L175.54,84.8z M177.237,77.648h3.634c1.14,0,1.951-0.195,2.432-0.593
		c0.482-0.397,0.722-0.917,0.722-1.557c0-1.381-0.914-2.07-2.74-2.07h-4.049L177.237,77.648L177.237,77.648z"/>
	<path fill="#787878" d="M187.834,80.697l1.604-0.146c0.124,1.022,0.533,1.772,1.229,2.245c0.695,0.471,1.542,0.708,2.541,0.708
		c1.061,0,1.855-0.212,2.386-0.635c0.529-0.424,0.795-0.938,0.795-1.545c0-0.417-0.131-0.779-0.395-1.087
		c-0.264-0.307-0.623-0.543-1.076-0.706c-0.455-0.165-1.266-0.382-2.432-0.651c-0.865-0.197-1.591-0.424-2.178-0.682
		c-0.588-0.259-1.066-0.635-1.43-1.123c-0.366-0.489-0.549-1.077-0.549-1.764c0-0.73,0.177-1.349,0.528-1.858
		c0.352-0.508,0.88-0.912,1.584-1.209c0.704-0.299,1.496-0.45,2.379-0.45c1.541,0,2.715,0.354,3.522,1.057
		c0.805,0.707,1.235,1.627,1.289,2.768l-1.618,0.12c-0.178-1.64-1.216-2.459-3.113-2.459c-1.96,0-2.94,0.645-2.94,1.928
		c0,0.375,0.12,0.698,0.359,0.97c0.241,0.271,0.552,0.478,0.928,0.608c0.379,0.135,0.964,0.29,1.756,0.467
		c1.409,0.317,2.362,0.592,2.862,0.823c0.498,0.233,0.904,0.503,1.215,0.812c0.313,0.306,0.545,0.652,0.703,1.036
		c0.156,0.383,0.235,0.804,0.235,1.268c0,1.193-0.46,2.13-1.377,2.809c-0.917,0.676-2.037,1.017-3.354,1.017
		c-1.763,0-3.1-0.396-4.009-1.193C188.369,83.031,187.887,81.988,187.834,80.697z"/>
	<path fill="#787878" d="M203.59,84.8V73.521h-4.223v-1.513h10.13v1.513h-4.224V84.8H203.59z"/>
	<path fill="#787878" d="M214.558,84.8l4.926-12.789h1.814l5.246,12.789h-1.935l-1.485-3.877h-5.354l-1.409,3.877H214.558z
		 M218.249,79.548h4.349l-1.339-3.54c-0.445-1.188-0.747-2.068-0.909-2.648c-0.164,0.821-0.393,1.635-0.692,2.436L218.249,79.548z"
		/>
	<path fill="#787878" d="M227.88,84.8V72.011h4.826c0.711,0,1.338,0.035,1.877,0.106c0.539,0.071,1.042,0.25,1.509,0.536
		c0.468,0.283,0.845,0.695,1.13,1.229c0.286,0.534,0.427,1.146,0.427,1.829c0,2.596-1.6,3.892-4.797,3.892h-3.276v5.198L227.88,84.8
		L227.88,84.8z M229.576,78.091h3.303c2.014,0,3.022-0.774,3.022-2.324c0-0.376-0.054-0.701-0.155-0.978
		c-0.102-0.274-0.254-0.508-0.454-0.701c-0.202-0.19-0.448-0.335-0.741-0.428c-0.295-0.094-0.862-0.139-1.698-0.139h-3.276
		L229.576,78.091L229.576,78.091z"/>
	<path fill="#787878" d="M239.801,84.8V72.011h4.826c0.713,0,1.339,0.035,1.878,0.106c0.54,0.071,1.042,0.25,1.512,0.536
		c0.467,0.283,0.844,0.695,1.127,1.229c0.286,0.534,0.43,1.146,0.43,1.829c0,2.596-1.601,3.892-4.798,3.892H241.5v5.198
		L239.801,84.8L239.801,84.8z M241.499,78.091h3.3c2.014,0,3.022-0.774,3.022-2.324c0-0.376-0.053-0.701-0.153-0.978
		c-0.102-0.274-0.255-0.508-0.456-0.701c-0.199-0.19-0.447-0.335-0.742-0.428c-0.293-0.094-0.86-0.139-1.696-0.139h-3.275V78.091
		L241.499,78.091z"/>
	<path fill="#787878" d="M251.751,84.8V72.011h5.666c1.069,0,1.829,0.077,2.286,0.227c0.452,0.151,0.831,0.356,1.133,0.613
		c0.304,0.26,0.569,0.617,0.796,1.07c0.229,0.454,0.34,0.979,0.34,1.577c0,1.996-1.194,3.158-3.592,3.488
		c0.506,0.223,0.957,0.545,1.348,0.964c0.392,0.417,0.75,0.876,1.07,1.374l2.232,3.476h-2.146l-1.681-2.657
		c-0.419-0.66-0.778-1.183-1.076-1.569c-0.297-0.39-0.591-0.697-0.88-0.922c-0.289-0.23-0.555-0.374-0.796-0.437
		c-0.24-0.063-0.588-0.095-1.041-0.095h-1.961v5.68H251.751L251.751,84.8z M253.447,77.648h3.635c1.14,0,1.952-0.195,2.432-0.593
		c0.481-0.397,0.721-0.917,0.721-1.557c0-1.381-0.911-2.07-2.739-2.07h-4.048V77.648z"/>
	<path fill="#787878" d="M263.214,84.8l4.928-12.789h1.814l5.248,12.789h-1.938l-1.484-3.877h-5.354l-1.408,3.877H263.214z
		 M266.908,79.548h4.347l-1.337-3.54c-0.444-1.188-0.747-2.068-0.907-2.648c-0.166,0.821-0.396,1.635-0.695,2.436L266.908,79.548z"
		/>
	<path fill="#787878" d="M276.836,84.8V72.011h1.681V84.8H276.836z"/>
	<path fill="#787878" d="M280.923,80.697l1.604-0.146c0.123,1.022,0.534,1.772,1.229,2.245c0.693,0.471,1.541,0.708,2.54,0.708
		c1.06,0,1.854-0.212,2.384-0.635c0.531-0.424,0.796-0.938,0.796-1.545c0-0.417-0.133-0.779-0.395-1.087
		c-0.261-0.307-0.622-0.543-1.078-0.706c-0.453-0.165-1.264-0.382-2.429-0.651c-0.865-0.197-1.592-0.424-2.178-0.682
		c-0.587-0.259-1.067-0.635-1.431-1.123c-0.365-0.489-0.549-1.077-0.549-1.764c0-0.73,0.179-1.349,0.528-1.858
		c0.353-0.508,0.879-0.912,1.585-1.209c0.702-0.299,1.496-0.45,2.378-0.45c1.542,0,2.716,0.354,3.522,1.057
		c0.804,0.707,1.236,1.627,1.287,2.768l-1.617,0.12c-0.176-1.64-1.214-2.459-3.112-2.459c-1.961,0-2.939,0.645-2.939,1.928
		c0,0.375,0.118,0.698,0.36,0.97c0.238,0.271,0.55,0.478,0.927,0.608c0.379,0.135,0.966,0.29,1.756,0.467
		c1.411,0.317,2.365,0.592,2.865,0.823c0.495,0.233,0.9,0.503,1.213,0.812c0.312,0.306,0.546,0.652,0.701,1.036
		c0.156,0.383,0.234,0.804,0.234,1.268c0,1.193-0.458,2.13-1.376,2.809c-0.916,0.676-2.038,1.017-3.354,1.017
		c-1.763,0-3.1-0.396-4.01-1.193C281.458,83.031,280.975,81.988,280.923,80.697z"/>
	<path fill="#787878" d="M305.129,84.8V72.011h1.701v11.28h6.291v1.51L305.129,84.8L305.129,84.8z"/>
	<path fill="#787878" d="M326.967,83.305c-1.032,1.14-2.26,1.711-3.678,1.711c-0.775,0-1.452-0.156-2.032-0.463
		c-0.579-0.306-1.061-0.758-1.445-1.351c-0.383-0.592-0.575-1.235-0.575-1.93c0-1.577,1.018-2.854,3.046-3.82
		c-0.95-1.108-1.428-2.042-1.428-2.808c0-0.812,0.305-1.488,0.923-2.033c0.614-0.543,1.363-0.817,2.243-0.817
		c0.58,0,1.09,0.123,1.538,0.362c0.444,0.243,0.796,0.564,1.058,0.97c0.257,0.406,0.385,0.869,0.385,1.396
		c0,1.211-0.808,2.25-2.422,3.114l2.283,2.939c0.265-0.53,0.469-1.126,0.62-1.791l1.631,0.348c-0.273,1.113-0.649,2.03-1.119,2.757
		c0.579,0.772,1.239,1.428,1.986,1.96l-1.053,1.244C328.296,84.684,327.641,84.085,326.967,83.305z M325.976,82.033l-2.87-3.562
		c-1.448,0.867-2.172,1.771-2.172,2.706c0,0.661,0.233,1.232,0.702,1.725c0.47,0.488,1.03,0.732,1.679,0.732
		C324.412,83.637,325.299,83.103,325.976,82.033z M323.755,76.61c1.097-0.624,1.646-1.308,1.646-2.047
		c0-0.375-0.124-0.714-0.37-1.022c-0.246-0.307-0.608-0.46-1.091-0.46c-0.363,0-0.704,0.122-1.015,0.367
		c-0.312,0.244-0.467,0.594-0.467,1.049c0,0.411,0.207,0.85,0.617,1.318L323.755,76.61z"/>
	<path fill="#787878" d="M345.614,80.309l1.696,0.428c-0.731,2.852-2.5,4.279-5.307,4.279c-2.058,0-3.573-0.648-4.543-1.934
		c-0.973-1.287-1.456-2.88-1.456-4.777c0-2.156,0.578-3.781,1.734-4.87c1.16-1.093,2.593-1.641,4.291-1.641
		c2.648,0,4.332,1.242,5.053,3.718l-1.656,0.399c-0.573-1.78-1.711-2.672-3.422-2.672c-1.38,0-2.438,0.444-3.167,1.337
		c-0.73,0.892-1.099,2.133-1.099,3.73c0,1.842,0.395,3.181,1.188,4.014c0.787,0.832,1.768,1.25,2.945,1.25
		C343.892,83.569,345.14,82.484,345.614,80.309z"/>
	<path fill="#787878" d="M348.874,78.57c0-1.28,0.229-2.427,0.681-3.434c0.455-1.006,1.143-1.818,2.06-2.434
		c0.915-0.613,2.044-0.919,3.381-0.919c0.89,0,1.712,0.16,2.466,0.479c0.751,0.319,1.398,0.767,1.938,1.344
		c0.538,0.575,0.956,1.276,1.256,2.097c0.299,0.823,0.447,1.732,0.447,2.719c0,1.374-0.248,2.541-0.743,3.503
		c-0.492,0.963-1.229,1.717-2.204,2.267c-0.975,0.546-2.035,0.823-3.173,0.823c-1.177,0-2.239-0.285-3.195-0.851
		c-0.953-0.563-1.676-1.348-2.17-2.354C349.12,80.812,348.874,79.729,348.874,78.57z M350.61,78.6c0,1.015,0.19,1.896,0.569,2.644
		c0.378,0.747,0.887,1.323,1.523,1.725c0.637,0.4,1.396,0.601,2.278,0.601c1.37,0,2.444-0.477,3.213-1.422
		c0.771-0.95,1.159-2.196,1.159-3.736c0-1.062-0.186-1.979-0.549-2.759c-0.366-0.781-0.869-1.376-1.505-1.791
		c-0.638-0.416-1.4-0.623-2.291-0.623c-0.714,0-1.342,0.116-1.886,0.354s-1.005,0.59-1.383,1.063
		c-0.377,0.473-0.662,1.037-0.85,1.689C350.704,77,350.61,77.751,350.61,78.6z"/>
	<path fill="#787878" d="M363.265,84.8V72.011h1.741l6.708,10.062V72.011h1.63V84.8h-1.738l-6.722-10.059V84.8H363.265z"/>
	<path fill="#787878" d="M396.463,72.011h1.696v7.389c0,1.24-0.115,2.187-0.354,2.836c-0.234,0.648-0.561,1.174-0.976,1.575
		c-0.416,0.4-0.928,0.701-1.545,0.903c-0.616,0.199-1.321,0.304-2.122,0.304c-1.666,0-2.928-0.401-3.783-1.206
		c-0.857-0.803-1.283-2.273-1.283-4.41v-7.391h1.698v7.376c0,1.017,0.073,1.751,0.222,2.201c0.146,0.448,0.352,0.808,0.621,1.08
		c0.269,0.273,0.6,0.476,0.995,0.615c0.396,0.138,0.856,0.206,1.384,0.206c0.748,0,1.372-0.106,1.871-0.318
		c0.499-0.215,0.886-0.588,1.162-1.127c0.278-0.531,0.415-1.417,0.415-2.657v-7.376H396.463z"/>
	<path fill="#787878" d="M400.898,84.8V72.011h1.698v11.28h6.294v1.51L400.898,84.8L400.898,84.8z"/>
	<path fill="#787878" d="M414.17,84.8V73.521h-4.223v-1.513h10.132v1.513h-4.225V84.8H414.17z"/>
	<path fill="#787878" d="M422.123,84.8V72.011h1.683V84.8H422.123z"/>
	<path fill="#787878" d="M426.773,84.8V72.011h1.737l6.708,10.062V72.011h1.632V84.8h-1.738l-6.723-10.059V84.8H426.773z"/>
	<path fill="#787878" d="M445.67,79.787v-1.51h5.412v4.744c-1.669,1.328-3.43,1.994-5.293,1.994c-1.026,0-1.937-0.148-2.732-0.436
		c-0.797-0.292-1.472-0.726-2.026-1.304c-0.551-0.583-0.986-1.286-1.304-2.119c-0.314-0.831-0.471-1.731-0.471-2.691
		c0-1.945,0.547-3.539,1.648-4.794c1.102-1.251,2.685-1.878,4.752-1.878c2.887,0,4.632,1.268,5.237,3.8l-1.522,0.414
		c-0.535-1.846-1.769-2.768-3.701-2.768c-1.488,0-2.639,0.45-3.45,1.35c-0.812,0.901-1.215,2.157-1.215,3.769
		c0,1.808,0.455,3.117,1.369,3.923c0.912,0.807,2.02,1.209,3.323,1.209c1.484,0,2.729-0.439,3.727-1.321v-2.381L445.67,79.787
		L445.67,79.787z"/>
	<path fill="#787878" d="M467.422,80.309l1.696,0.428c-0.729,2.852-2.498,4.279-5.307,4.279c-2.056,0-3.573-0.648-4.542-1.934
		c-0.972-1.287-1.458-2.88-1.458-4.777c0-2.156,0.58-3.781,1.737-4.87c1.161-1.093,2.588-1.641,4.292-1.641
		c2.644,0,4.328,1.242,5.05,3.718l-1.656,0.399c-0.568-1.78-1.712-2.672-3.422-2.672c-1.381,0-2.436,0.444-3.166,1.337
		c-0.732,0.892-1.098,2.133-1.098,3.73c0,1.842,0.395,3.181,1.184,4.014c0.787,0.832,1.77,1.25,2.947,1.25
		C465.703,83.569,466.949,82.484,467.422,80.309z"/>
	<path fill="#787878" d="M470.68,78.57c0-1.28,0.228-2.427,0.684-3.434c0.456-1.006,1.139-1.818,2.058-2.434
		c0.919-0.613,2.046-0.919,3.381-0.919c0.89,0,1.713,0.16,2.466,0.479c0.751,0.319,1.396,0.767,1.939,1.344
		c0.536,0.575,0.956,1.276,1.256,2.097c0.296,0.823,0.448,1.732,0.448,2.719c0,1.374-0.248,2.541-0.745,3.503
		c-0.494,0.963-1.228,1.717-2.205,2.267c-0.975,0.546-2.031,0.823-3.172,0.823c-1.177,0-2.24-0.285-3.193-0.851
		c-0.955-0.563-1.676-1.348-2.173-2.354C470.929,80.812,470.68,79.729,470.68,78.57z M472.419,78.6c0,1.015,0.188,1.896,0.567,2.644
		c0.38,0.747,0.888,1.323,1.524,1.725c0.638,0.4,1.396,0.601,2.278,0.601c1.373,0,2.443-0.477,3.214-1.422
		c0.77-0.95,1.155-2.196,1.155-3.736c0-1.062-0.183-1.979-0.549-2.759c-0.364-0.781-0.862-1.376-1.5-1.791
		c-0.639-0.416-1.402-0.623-2.294-0.623c-0.713,0-1.34,0.116-1.884,0.354c-0.542,0.237-1.005,0.59-1.385,1.063
		c-0.379,0.473-0.662,1.037-0.845,1.689C472.514,77,472.419,77.751,472.419,78.6z"/>
	<path fill="#787878" d="M485.33,84.8v-1.793h1.79V84.8H485.33z"/>
	<path fill="#787878" d="M375.797,80.69l1.604-0.146c0.124,1.023,0.534,1.773,1.229,2.245c0.694,0.471,1.541,0.708,2.54,0.708
		c1.061,0,1.854-0.212,2.385-0.635c0.531-0.424,0.797-0.938,0.797-1.544c0-0.418-0.135-0.78-0.396-1.088
		c-0.262-0.307-0.622-0.543-1.077-0.707c-0.454-0.164-1.265-0.381-2.43-0.649c-0.866-0.198-1.593-0.425-2.178-0.683
		c-0.588-0.259-1.068-0.635-1.431-1.123c-0.366-0.489-0.55-1.077-0.55-1.764c0-0.729,0.179-1.349,0.529-1.858
		c0.353-0.509,0.878-0.911,1.584-1.209c0.702-0.299,1.496-0.449,2.38-0.449c1.54,0,2.715,0.352,3.521,1.056
		c0.804,0.707,1.235,1.628,1.286,2.769l-1.616,0.12c-0.177-1.64-1.215-2.46-3.112-2.46c-1.961,0-2.94,0.645-2.94,1.927
		c0,0.375,0.119,0.698,0.36,0.972c0.239,0.271,0.55,0.478,0.927,0.606c0.38,0.136,0.966,0.291,1.757,0.468
		c1.41,0.318,2.364,0.592,2.865,0.823c0.495,0.233,0.9,0.503,1.213,0.812c0.312,0.306,0.545,0.652,0.702,1.036
		c0.154,0.383,0.232,0.805,0.232,1.268c0,1.194-0.458,2.131-1.375,2.809c-0.916,0.676-2.037,1.016-3.355,1.016
		c-1.763,0-3.099-0.395-4.01-1.192C376.331,83.026,375.848,81.983,375.797,80.69z"/>
	<path fill="#787878" d="M292.236,84.794l4.928-12.789h1.815l5.246,12.789h-1.937l-1.484-3.877h-5.354l-1.408,3.877H292.236z
		 M295.93,79.542h4.347l-1.335-3.54c-0.446-1.188-0.747-2.068-0.909-2.648c-0.164,0.821-0.396,1.636-0.695,2.436L295.93,79.542z"/>
</g>
<path fill="#0066B3" d="M53.932,1.31c-25.357,0-45.914,20.562-45.914,45.92c0,25.353,20.557,45.909,45.914,45.909
	c25.361,0,45.917-20.557,45.917-45.909C99.849,21.872,79.292,1.31,53.932,1.31z M74.157,53.456c0,11.171-9.053,20.218-20.226,20.218
	c-11.168,0-20.22-9.047-20.22-20.218c0-11.17,9.052-20.222,20.22-20.222C65.104,33.234,74.157,42.286,74.157,53.456z M53.974,85.521
	c-1.753,0-3.523-0.123-5.31-0.381c-18.48-2.66-31.807-18.498-31.807-36.654c0-1.751,0.126-3.526,0.381-5.311
	c1.922-13.403,10.814-24.121,22.47-28.969c1.916-0.796,4.113,0.107,4.911,2.021c0.798,1.92-0.109,4.111-2.022,4.91
	c-9.311,3.887-16.389,12.405-17.922,23.106c-0.208,1.426-0.305,2.842-0.305,4.242C24.366,62.936,35,75.607,49.73,77.71
	c1.429,0.201,2.84,0.302,4.242,0.302c14.447,0,27.109-10.631,29.217-25.365c0.205-1.43,0.302-2.847,0.302-4.242
	c0.008-11.919-7.24-22.628-18.036-27.188v0.008c-1.913-0.812-2.807-3.022-1.999-4.928c0.808-1.91,3.011-2.807,4.922-1.991
	C81.941,20.033,91,33.418,91.006,48.404c0,1.748-0.127,3.529-0.381,5.313C87.967,72.193,72.129,85.521,53.974,85.521z"/>
</svg>
